<svg width="31" height="31" viewBox="0 0 31 31" fill="none" xmlns="http://www.w3.org/2000/svg">
<path fill-rule="evenodd" clip-rule="evenodd" d="M25.8227 4.55535C24.44 3.168 22.7945 2.0675 20.9815 1.31761C19.1684 0.567724 17.2238 0.183353 15.2605 0.186766C7.02753 0.180255 0.320111 6.84363 0.3103 15.0408C0.308228 17.6606 0.993391 20.218 2.29776 22.4745L0.173538 30.1748L8.09362 28.1127C10.283 29.3011 12.7364 29.9253 15.2303 29.9284L15.2369 29.9284C23.4682 29.9349 30.1756 23.2715 30.1854 15.0744C30.1926 13.1211 29.8108 11.1858 29.0619 9.38026C28.3131 7.57475 27.2122 5.93485 25.8227 4.55535ZM15.2389 27.4195L15.2339 27.4195C13.0102 27.418 10.8278 26.8208 8.91584 25.6907L8.46347 25.422L3.76368 26.6454L5.02019 22.0874L4.72605 21.6202C3.48433 19.6493 2.82798 17.3691 2.83276 15.0428C2.84147 8.23004 8.41489 2.69184 15.2635 2.69725C16.8945 2.69494 18.5098 3.01459 20.0159 3.63773C21.522 4.26086 22.8889 5.17509 24.0376 6.3275C25.1925 7.47443 26.1075 8.8378 26.7298 10.3388C27.352 11.8398 27.6692 13.4486 27.663 15.0724C27.6543 21.8851 22.0808 27.425 15.2389 27.4195ZM22.0565 18.1696C21.6823 17.9822 19.8494 17.0832 19.5068 16.9587C19.1658 16.8342 18.9179 16.7728 18.668 17.1435C18.4181 17.5143 17.702 18.35 17.4838 18.5982C17.2657 18.8464 17.0477 18.8761 16.6751 18.6903C16.3025 18.5045 15.0999 18.1111 13.6749 16.8448C12.5659 15.8586 11.8181 14.6425 11.6004 14.2697C11.3827 13.897 11.5776 13.6968 11.7657 13.5114C11.9339 13.346 12.1388 13.0779 12.3253 12.8611C12.5118 12.6443 12.5735 12.4903 12.6985 12.242C12.8235 11.9937 12.7621 11.7767 12.6674 11.5912C12.5744 11.404 11.8287 9.57519 11.5182 8.8314C11.2176 8.1108 10.9097 8.20661 10.6801 8.19649C10.4423 8.18662 10.2043 8.18202 9.96629 8.18268C9.77703 8.18733 9.59077 8.23085 9.4192 8.3105C9.24763 8.39015 9.09445 8.50423 8.96925 8.64557C8.6262 9.0179 7.6621 9.91468 7.66065 11.7429C7.6592 13.5711 8.99557 15.3391 9.18173 15.5877C9.36789 15.8362 11.8108 19.589 15.5533 21.2015C16.4449 21.5848 17.1402 21.8139 17.6808 21.9865C18.5741 22.2704 19.3878 22.2296 20.0318 22.1358C20.749 22.0303 22.2405 21.24 22.5523 20.3725C22.8641 19.505 22.8647 18.7614 22.7717 18.6057C22.6786 18.45 22.4274 18.3554 22.0565 18.1696Z" fill="white"/>
</svg>
