<svg width="20" height="21" viewBox="0 0 20 21" fill="none" xmlns="http://www.w3.org/2000/svg">
<path fill-rule="evenodd" clip-rule="evenodd" d="M3.1193 2.95002C2.18371 3.86095 1.43731 4.94934 0.923331 6.15214C0.409351 7.35494 0.13801 8.64823 0.125028 9.95709C0.0567101 15.4453 4.44654 19.9684 9.91086 20.0386C11.6572 20.0604 13.3674 19.6235 14.8817 18.7715L19.9985 20.2474L18.6854 14.9517C19.4946 13.5014 19.9298 11.8707 19.9512 10.2083L19.9512 10.2039C20.0195 4.7168 15.6297 0.193714 10.1654 0.123475C8.86336 0.103496 7.57027 0.343009 6.36086 0.828165C5.15145 1.31332 4.0497 2.0345 3.1193 2.95002ZM18.2788 10.1831L18.2788 10.1864C18.2605 11.6688 17.8454 13.119 17.0772 14.3847L16.8946 14.6842L17.6736 17.8267L14.6449 16.9537L14.3312 17.1461C13.0077 17.9585 11.4825 18.3784 9.93179 18.3571C5.39034 18.2984 1.74177 14.54 1.7986 9.9746C1.80973 8.8873 2.03537 7.81299 2.46247 6.81384C2.88956 5.8147 3.50963 4.91057 4.28678 4.15377C5.06032 3.39282 5.97628 2.79345 6.98171 2.3903C7.98714 1.98715 9.0621 1.78821 10.1445 1.80498C14.6859 1.86373 18.3356 5.62215 18.2788 10.1831ZM12.1656 5.56642C12.0377 5.81443 11.4242 7.02929 11.3386 7.25675C11.2529 7.4831 11.21 7.64786 11.4552 7.81732C11.7004 7.98677 12.252 8.47065 12.4158 8.61802C12.5795 8.76538 12.5976 8.91093 12.4709 9.15785C12.3441 9.40476 12.0725 10.2034 11.2173 11.1435C10.5513 11.8751 9.73479 12.3642 9.4846 12.5064C9.23441 12.6486 9.10245 12.5172 8.98038 12.3903C8.87138 12.2769 8.69425 12.1382 8.55118 12.0122C8.40811 11.8862 8.30596 11.8439 8.14141 11.7586C7.97686 11.6734 7.83174 11.7126 7.70731 11.7743C7.5818 11.8349 6.35688 12.3177 5.85864 12.5189C5.37594 12.7137 5.43742 12.9197 5.42889 13.0727C5.42046 13.2312 5.41554 13.3898 5.41413 13.5484C5.41576 13.6746 5.44332 13.7991 5.49509 13.9141C5.54686 14.0291 5.62171 14.1321 5.71496 14.2167C5.96049 14.4483 6.55082 15.0979 7.76953 15.1131C8.98825 15.1283 10.1772 14.2511 10.3444 14.129C10.5115 14.0068 13.0321 12.4074 14.1362 9.92517C14.3986 9.33382 14.5567 8.87208 14.676 8.51303C14.8722 7.91975 14.8513 7.37703 14.7938 6.94699C14.7291 6.46806 14.2138 5.46767 13.6379 5.25305C13.062 5.03844 12.5664 5.03227 12.4618 5.09309C12.3573 5.15391 12.2923 5.32061 12.1656 5.56642Z" fill="black"/>
</svg>
