<svg width="77" height="81" viewBox="0 0 77 81" fill="none" xmlns="http://www.w3.org/2000/svg">
<path d="M75.1357 25.6561H73.2531C73.2174 24.9784 73.1632 24.2989 73.0882 23.6221C72.9771 22.6164 72.0717 21.8907 71.0654 22.0019C70.0595 22.113 69.334 23.0188 69.4452 24.0247C69.5053 24.5676 69.55 25.1126 69.5821 25.6559H65.9102C64.9638 11.3503 53.0255 0 38.4842 0C23.9428 0 12.0045 11.3503 11.058 25.6561H7.38603C7.4181 25.1126 7.46299 24.5677 7.52292 24.0249C7.63416 23.019 6.90864 22.1132 5.90274 22.0021C4.89628 21.8914 3.99117 22.6164 3.87994 23.6223C3.80517 24.2989 3.75092 24.9786 3.715 25.6563H1.83258C0.820446 25.6563 0 26.4767 0 27.4889C0 28.501 0.820446 29.3215 1.83258 29.3215H3.71336C4.5864 46.0762 17.3593 59.7315 33.7195 61.9802V77.3348H19.3601C18.348 77.3348 17.5275 78.1555 17.5275 79.1674C17.5275 80.1794 18.348 81 19.3601 81H56.8752C57.8873 81 58.7078 80.1794 58.7078 79.1674C58.7078 78.1555 57.8873 77.3348 56.8752 77.3348H43.2489V61.9802C59.609 59.7315 72.3819 46.0762 73.255 29.3213H75.1357C76.1479 29.3213 76.9683 28.5008 76.9683 27.4887C76.9683 26.4766 76.1479 25.6561 75.1357 25.6561ZM38.4842 3.66516C51.6205 3.66516 62.3077 14.3522 62.3077 27.4887C62.3077 40.6252 51.6205 51.3122 38.4842 51.3122C25.3479 51.3122 14.6606 40.6252 14.6606 27.4887C14.6606 14.3522 25.3479 3.66516 38.4842 3.66516ZM39.5837 77.3348H37.3846V62.2886C37.7498 62.3002 38.1162 62.3077 38.4842 62.3077C38.8521 62.3077 39.2185 62.3 39.5837 62.2886V77.3348ZM41.2321 58.5199C41.2305 58.5201 41.2286 58.5201 41.2268 58.5203C40.3228 58.5997 39.4085 58.6425 38.4842 58.6425C37.5598 58.6425 36.6455 58.5997 35.7413 58.5203C35.7395 58.5201 35.7379 58.5201 35.736 58.5199C20.4421 57.1767 8.28436 44.7367 7.38566 29.3213H11.058C12.0045 43.6271 23.9428 54.9774 38.4842 54.9774C53.0255 54.9774 64.9638 43.6271 65.9104 29.3213H69.5827C68.6838 44.7367 56.5263 57.1767 41.2321 58.5199Z" fill="#B05142"/>
<path d="M35.166 27.207C35.5237 27.5647 35.9929 27.7438 36.4618 27.7438C36.9308 27.7438 37.3999 27.5647 37.7577 27.207L50.8071 14.1576C51.5227 13.4419 51.5227 12.2816 50.8071 11.5658C50.0915 10.8503 48.9311 10.8503 48.2153 11.5658L35.1658 24.6152C34.4502 25.331 34.4502 26.4914 35.166 27.207Z" fill="#B05142"/>
<path d="M29.9826 29.7986L22.5612 37.2198C21.8456 37.9354 21.8454 39.0958 22.561 39.8116C22.9189 40.1694 23.3879 40.3484 23.8569 40.3484C24.3258 40.3484 24.795 40.1694 25.1527 39.8116L32.5741 32.3904C33.2897 31.6748 33.2899 30.5144 32.5741 29.7986C31.8586 29.0832 30.6984 29.083 29.9826 29.7986Z" fill="#B05142"/>
<path d="M41.4689 7.94551C40.7533 7.23008 39.5929 7.23008 38.8771 7.94551L18.941 27.8818C18.2254 28.5974 18.2254 29.7578 18.941 30.4736C19.2989 30.8313 19.7679 31.0104 20.2368 31.0104C20.7058 31.0104 21.1749 30.8313 21.5326 30.4736L41.4689 10.5373C42.1845 9.82171 42.1845 8.66132 41.4689 7.94551Z" fill="#B05142"/>
</svg>
