<svg width="102" height="93" viewBox="0 0 102 93" fill="none" xmlns="http://www.w3.org/2000/svg">
<path d="M46.5848 39.0681C41.3577 39.0681 37.1052 43.3206 37.1052 48.5477C37.1052 53.7748 41.3579 58.0272 46.5848 58.0272C51.812 58.0272 56.0643 53.7746 56.0643 48.5477C56.0645 43.3208 51.812 39.0681 46.5848 39.0681ZM46.5848 54.6669C43.2109 54.6669 40.4656 51.9221 40.4656 48.5479C40.4658 45.1736 43.2107 42.4287 46.5848 42.4287C49.9588 42.4287 52.7039 45.1736 52.7039 48.5479C52.7039 51.9221 49.959 54.6669 46.5848 54.6669Z" fill="#B05142"/>
<path d="M20.2241 39.0684C14.997 39.0684 10.7446 43.3209 10.7446 48.548C10.7446 53.7751 14.9972 58.0274 20.2241 58.0274C25.4512 58.0274 29.7037 53.7749 29.7037 48.548C29.7037 43.3211 25.4512 39.0684 20.2241 39.0684ZM20.2241 54.6668C16.8501 54.6668 14.1053 51.922 14.1053 48.5478C14.1053 45.1736 16.8501 42.4286 20.2241 42.4286C23.598 42.4286 26.3433 45.1734 26.3433 48.5478C26.3429 51.9218 23.598 54.6668 20.2241 54.6668Z" fill="#B05142"/>
<path d="M72.9459 39.0681C67.7188 39.0681 63.4663 43.3206 63.4663 48.5477C63.4663 53.7748 67.719 58.0272 72.9459 58.0272C78.173 58.0272 82.4254 53.7746 82.4254 48.5477C82.4254 43.3208 78.173 39.0681 72.9459 39.0681ZM72.9459 54.6669C69.572 54.6669 66.8267 51.9221 66.8267 48.5479C66.8269 45.1736 69.5718 42.4287 72.9459 42.4287C76.3201 42.4287 79.0649 45.1736 79.0649 48.5479C79.0647 51.9221 76.3199 54.6669 72.9459 54.6669Z" fill="#B05142"/>
<path d="M46.5848 18.0085C41.3577 18.0085 37.1052 22.2611 37.1052 27.4882C37.1052 32.7153 41.3579 36.9676 46.5848 36.9676C51.812 36.9676 56.0643 32.7151 56.0643 27.4882C56.0645 22.2613 51.812 18.0085 46.5848 18.0085ZM46.5848 33.6074C43.2109 33.6074 40.4656 30.8625 40.4656 27.4884C40.4658 24.114 43.2107 21.3692 46.5848 21.3692C49.9588 21.3692 52.7039 24.114 52.7039 27.4884C52.7039 30.8625 49.959 33.6074 46.5848 33.6074Z" fill="#B05142"/>
<path d="M20.2241 18.0089C14.997 18.0089 10.7446 22.2614 10.7446 27.4885C10.7446 32.7156 14.9972 36.968 20.2241 36.968C25.4512 36.968 29.7037 32.7154 29.7037 27.4885C29.7037 22.2614 25.4512 18.0089 20.2241 18.0089ZM20.2241 33.6071C16.8501 33.6071 14.1053 30.8623 14.1053 27.4883C14.1053 24.1142 16.8501 21.3691 20.2241 21.3691C23.598 21.3691 26.3433 24.114 26.3433 27.4883C26.3429 30.8623 23.598 33.6071 20.2241 33.6071Z" fill="#B05142"/>
<path d="M46.5848 60.1276C41.3577 60.1276 37.1052 64.3801 37.1052 69.6072C37.1052 74.8343 41.3579 79.0866 46.5848 79.0866C51.812 79.0866 56.0643 74.8341 56.0643 69.6072C56.0643 64.3803 51.812 60.1276 46.5848 60.1276ZM46.5848 75.7262C43.2109 75.7262 40.4656 72.9814 40.4656 69.6072C40.4658 66.233 43.2107 63.488 46.5848 63.488C49.9588 63.488 52.7039 66.2328 52.7039 69.6072C52.7039 72.9814 49.959 75.7262 46.5848 75.7262Z" fill="#B05142"/>
<path d="M20.2241 60.1276C14.997 60.1276 10.7446 64.3801 10.7446 69.6072C10.7446 74.8343 14.9972 79.0866 20.2241 79.0866C25.4512 79.0866 29.7037 74.8341 29.7037 69.6072C29.7037 64.3803 25.4512 60.1276 20.2241 60.1276ZM20.2241 75.7262C16.8501 75.7262 14.1053 72.9814 14.1053 69.6072C14.1053 66.233 16.8501 63.488 20.2241 63.488C23.598 63.488 26.3433 66.2328 26.3433 69.6072C26.3429 72.9814 23.598 75.7262 20.2241 75.7262Z" fill="#B05142"/>
<path d="M72.9459 60.1276C67.7188 60.1276 63.4663 64.3801 63.4663 69.6072C63.4663 74.8343 67.719 79.0866 72.9459 79.0866C78.173 79.0866 82.4254 74.8341 82.4254 69.6072C82.4254 64.3803 78.173 60.1276 72.9459 60.1276ZM72.9459 75.7262C69.572 75.7262 66.8267 72.9814 66.8267 69.6072C66.8269 66.233 69.5718 63.488 72.9459 63.488C76.3201 63.488 79.0649 66.2328 79.0649 69.6072C79.0647 72.9814 76.3199 75.7262 72.9459 75.7262Z" fill="#B05142"/>
<path d="M102 5.85238C102 4.28413 101.389 2.80951 100.28 1.70066C98.1515 -0.427994 94.6353 -0.579998 92.3385 1.36756C92.2134 1.47355 92.0928 1.58491 91.9769 1.70066L82.0901 11.5873H25.0105C24.0826 11.5873 23.3303 12.3395 23.3303 13.2675C23.3303 14.1955 24.0826 14.9477 25.0105 14.9477H78.7295L78.6681 15.0091C78.6615 15.0107 78.6552 15.0127 78.6486 15.0142C77.6348 15.2677 76.6622 15.7328 75.8533 16.3976L73.8394 18.0525C73.5406 18.0238 73.242 18.0087 72.9463 18.0087C67.7192 18.0087 63.4667 22.2612 63.4667 27.4883C63.4667 32.7154 67.7192 36.9678 72.9463 36.9678C77.0164 36.9678 80.57 34.4285 81.897 30.6135C83.0266 29.2391 84.1574 27.8657 85.2855 26.49C86.0713 25.532 86.6974 24.5228 86.9827 23.3021L89.81 20.475C89.81 20.475 89.81 75.7094 89.81 75.7116C89.81 78.817 87.5995 81.4156 84.6692 82.0169C84.2504 82.103 83.8173 82.148 83.3736 82.148H67.5782C66.6502 82.148 65.898 82.9002 65.898 83.8282C65.898 84.7561 66.6502 85.5084 67.5782 85.5084H83.3736C85.1501 85.5084 86.9462 85.0245 88.4563 84.0834C88.8892 83.8136 89.3044 83.5186 89.6937 83.1891C89.7321 83.1564 89.7718 83.1249 89.81 83.0919V84.7681C89.81 87.3247 87.7302 89.4043 85.1738 89.4043H7.99684C5.44027 89.4039 3.36062 87.3241 3.36062 84.7677V83.0915C4.68563 84.2493 6.32659 85.0474 8.06099 85.352C8.63394 85.4526 9.21546 85.5084 9.79738 85.5084H60.8565C61.7845 85.5084 62.5368 84.7561 62.5368 83.8282C62.5368 82.9002 61.7845 82.148 60.8565 82.148H9.79698C6.2481 82.1478 3.36062 79.2603 3.36062 75.7114V19.0309C3.36062 16.7795 5.19244 14.9479 7.44401 14.9479H18.2895C19.2174 14.9479 19.9697 14.1957 19.9697 13.2677C19.9697 12.3397 19.2174 11.5875 18.2895 11.5875H7.44401C3.3393 11.5873 0 14.9266 0 19.0309V75.7114V84.7679C0 89.1774 3.58733 92.7647 7.99684 92.7647H85.1732C89.5827 92.7647 93.17 89.1774 93.17 84.7679C93.17 84.7679 93.17 75.7156 93.17 75.7114V19.0309C93.17 18.4484 93.1017 17.8748 92.969 17.3152L100.28 10.0043C101.389 8.89525 102 7.42083 102 5.85238ZM72.9461 33.6071C69.5722 33.6071 66.8269 30.8623 66.8269 27.4883C66.8269 25.4874 67.7924 23.708 69.2817 22.5907C69.2708 22.6142 69.261 22.6387 69.2504 22.6625C68.854 23.54 68.6637 24.5008 68.6982 25.4631C68.7544 27.0301 69.4164 28.5583 70.5256 29.6674C71.9176 31.0593 73.2747 32.6411 75.2854 33.1187C75.3003 33.1222 75.3152 33.1272 75.3304 33.1306C74.5937 33.4394 73.787 33.6071 72.9461 33.6071ZM83.7555 22.2495C83.6659 22.8698 83.3924 23.4988 82.9866 23.994L78.9799 28.8697C78.4334 29.5351 77.5895 29.9272 76.7295 29.9254C75.0784 29.9218 73.9685 28.3577 72.9019 27.2911C72.0275 26.4167 71.7988 25.0041 72.3806 23.8944C73.0015 22.7099 74.4534 22.0058 75.4083 21.1131C75.4083 21.1131 77.987 18.9942 77.9906 18.9913C78.6201 18.4757 79.4303 18.1886 80.2435 18.1886C81.193 18.1886 82.0847 18.5574 82.7541 19.2267C83.542 20.0144 83.9145 21.148 83.7555 22.2495ZM97.9041 7.62781L86.5759 18.9558C86.238 18.1918 85.7559 17.4762 85.1302 16.8504C85.1224 16.8427 85.114 16.8355 85.1063 16.8273C85.0347 16.7566 84.9622 16.6871 84.8881 16.6198C84.3375 16.1195 83.7045 15.7063 83.0232 15.4065C83.0232 15.4065 83.9743 14.4554 83.9753 14.4544C83.9753 14.4544 94.3496 4.08033 94.3532 4.07674C95.3196 3.11033 96.939 3.11153 97.9043 4.07674C98.8703 5.04295 98.8685 6.6634 97.9041 7.62781Z" fill="#B05142"/>
</svg>
