<svg width="52" height="85" viewBox="0 0 52 85" fill="none" xmlns="http://www.w3.org/2000/svg">
<path d="M29.8104 8.08375L23.7444 10.6111L24.717 12.9454L30.7829 10.4181L29.8104 8.08375Z" fill="#B05142"/>
<path d="M43.8295 29.6674C42.1863 29.6674 40.9829 30.3449 39.9984 31.1526C38.956 30.291 37.8252 29.6674 36.1741 29.6674C33.1301 29.6674 30.6536 32.1732 30.6536 35.2534C30.6537 36.6535 31.0788 37.5131 31.36 38.0823L31.3775 38.1178C32.5577 40.509 38.5193 45.4898 39.1954 46.0501L39.9999 46.7168L40.8063 46.0521C41.9194 45.1347 47.527 40.4391 48.6355 38.0996L48.6649 38.0381C48.9415 37.4562 49.3594 36.5768 49.3594 35.2534C49.3591 32.1732 46.8785 29.6674 43.8295 29.6674ZM46.3807 36.9525L46.35 37.017C45.7485 38.2863 42.4221 41.3686 40.0037 43.4254C37.5985 41.3706 34.2808 38.2872 33.6447 36.9987L33.6268 36.9622C33.3883 36.4796 33.1823 36.0627 33.1823 35.2534C33.1823 33.5387 34.4965 32.1958 36.1741 32.1958C37.3336 32.1958 37.9969 32.7 39.1356 33.7706L40.0114 34.5939L40.8782 33.7607C41.9572 32.7229 42.7099 32.196 43.8295 32.196C45.5122 32.196 46.8303 33.5389 46.8303 35.2534C46.8303 36.0066 46.612 36.466 46.3807 36.9525Z" fill="#B05142"/>
<path d="M25.4772 17.9431L25.3799 20.47L31.9466 20.723L32.044 18.1961L25.4772 17.9431Z" fill="#B05142"/>
<path d="M23.3093 2.07304e-05L18.8652 4.84033L20.7278 6.55043L25.1719 1.71012L23.3093 2.07304e-05Z" fill="#B05142"/>
<path d="M21.595 50.7921V44.89H19.7169V16.6501L8.19889 6.43591H4.27065V44.89H2.3927V50.7921H0V84.4476H23.9874V50.7921H21.595ZM7.23897 8.96469L17.1883 17.7875V44.8904H6.79942V8.96469H7.23897ZM19.0663 47.4188V50.7921H4.92131V47.4188H19.0663ZM21.4588 81.9188H2.52877V79.169H21.4588V81.9188ZM21.4588 76.6404H2.52877V53.3207H21.4588V76.6404Z" fill="#B05142"/>
<path d="M10.4565 32.9027H7.92773V36.355H10.4565V32.9027Z" fill="#B05142"/>
<path d="M10.4565 16.7561H7.92773V31.345H10.4565V16.7561Z" fill="#B05142"/>
<path d="M28.0127 48.6261V84.4474H52.0001V48.6261H28.0127ZM49.4715 81.9188H30.5415V56.4331H49.4715V81.9188ZM49.4715 53.9045H30.5415V51.1547H49.4715V53.9045Z" fill="#B05142"/>
</svg>
