<svg width="106" height="13" viewBox="0 0 106 13" fill="none" xmlns="http://www.w3.org/2000/svg">
<path d="M7.824 9.52H2.96L2.064 12H0.528L4.56 0.912H6.24L10.256 12H8.72L7.824 9.52ZM7.408 8.336L5.392 2.704L3.376 8.336H7.408ZM12.4773 12.096C12.1999 12.096 11.9653 12 11.7733 11.808C11.5813 11.616 11.4853 11.3813 11.4853 11.104C11.4853 10.8267 11.5813 10.592 11.7733 10.4C11.9653 10.208 12.1999 10.112 12.4773 10.112C12.7439 10.112 12.9679 10.208 13.1493 10.4C13.3413 10.592 13.4373 10.8267 13.4373 11.104C13.4373 11.3813 13.3413 11.616 13.1493 11.808C12.9679 12 12.7439 12.096 12.4773 12.096ZM24.5886 0.848L20.3806 12H18.7006L14.4926 0.848H16.0446L19.5486 10.464L23.0526 0.848H24.5886ZM31.2411 12.112C30.2065 12.112 29.2625 11.872 28.4091 11.392C27.5558 10.9013 26.8785 10.224 26.3771 9.36C25.8865 8.48533 25.6411 7.504 25.6411 6.416C25.6411 5.328 25.8865 4.352 26.3771 3.488C26.8785 2.61333 27.5558 1.936 28.4091 1.456C29.2625 0.965333 30.2065 0.719999 31.2411 0.719999C32.2865 0.719999 33.2358 0.965333 34.0891 1.456C34.9425 1.936 35.6145 2.608 36.1051 3.472C36.5958 4.336 36.8411 5.31733 36.8411 6.416C36.8411 7.51467 36.5958 8.496 36.1051 9.36C35.6145 10.224 34.9425 10.9013 34.0891 11.392C33.2358 11.872 32.2865 12.112 31.2411 12.112ZM31.2411 10.848C32.0198 10.848 32.7185 10.6667 33.3371 10.304C33.9665 9.94133 34.4571 9.424 34.8091 8.752C35.1718 8.08 35.3531 7.30133 35.3531 6.416C35.3531 5.52 35.1718 4.74133 34.8091 4.08C34.4571 3.408 33.9718 2.89067 33.3531 2.528C32.7345 2.16533 32.0305 1.984 31.2411 1.984C30.4518 1.984 29.7478 2.16533 29.1291 2.528C28.5105 2.89067 28.0198 3.408 27.6571 4.08C27.3051 4.74133 27.1291 5.52 27.1291 6.416C27.1291 7.30133 27.3051 8.08 27.6571 8.752C28.0198 9.424 28.5105 9.94133 29.1291 10.304C29.7585 10.6667 30.4625 10.848 31.2411 10.848ZM40.2193 2.032V5.76H44.2833V6.96H40.2193V10.8H44.7633V12H38.7633V0.832H44.7633V2.032H40.2193ZM56.1824 0.848L51.9744 12H50.2944L46.0864 0.848H47.6384L51.1424 10.464L54.6464 0.848H56.1824ZM62.8349 12.112C61.8002 12.112 60.8562 11.872 60.0029 11.392C59.1495 10.9013 58.4722 10.224 57.9709 9.36C57.4802 8.48533 57.2349 7.504 57.2349 6.416C57.2349 5.328 57.4802 4.352 57.9709 3.488C58.4722 2.61333 59.1495 1.936 60.0029 1.456C60.8562 0.965333 61.8002 0.719999 62.8349 0.719999C63.8802 0.719999 64.8295 0.965333 65.6829 1.456C66.5362 1.936 67.2082 2.608 67.6989 3.472C68.1895 4.336 68.4349 5.31733 68.4349 6.416C68.4349 7.51467 68.1895 8.496 67.6989 9.36C67.2082 10.224 66.5362 10.9013 65.6829 11.392C64.8295 11.872 63.8802 12.112 62.8349 12.112ZM62.8349 10.848C63.6135 10.848 64.3122 10.6667 64.9309 10.304C65.5602 9.94133 66.0509 9.424 66.4029 8.752C66.7655 8.08 66.9469 7.30133 66.9469 6.416C66.9469 5.52 66.7655 4.74133 66.4029 4.08C66.0509 3.408 65.5655 2.89067 64.9469 2.528C64.3282 2.16533 63.6242 1.984 62.8349 1.984C62.0455 1.984 61.3415 2.16533 60.7229 2.528C60.1042 2.89067 59.6135 3.408 59.2509 4.08C58.8989 4.74133 58.7229 5.52 58.7229 6.416C58.7229 7.30133 58.8989 8.08 59.2509 8.752C59.6135 9.424 60.1042 9.94133 60.7229 10.304C61.3522 10.6667 62.0562 10.848 62.8349 10.848ZM73.829 0.848C75.045 0.848 76.0957 1.07733 76.981 1.536C77.877 1.984 78.5597 2.62933 79.029 3.472C79.509 4.31467 79.749 5.30667 79.749 6.448C79.749 7.58933 79.509 8.58133 79.029 9.424C78.5597 10.256 77.877 10.896 76.981 11.344C76.0957 11.7813 75.045 12 73.829 12H70.357V0.848H73.829ZM73.829 10.8C75.269 10.8 76.3677 10.4213 77.125 9.664C77.8823 8.896 78.261 7.824 78.261 6.448C78.261 5.06133 77.877 3.97867 77.109 3.2C76.3517 2.42133 75.2583 2.032 73.829 2.032H71.813V10.8H73.829ZM83.1255 0.848V12H81.6695V0.848H83.1255ZM94.375 12H92.919L87.063 3.12V12H85.607V0.832H87.063L92.919 9.696V0.832H94.375V12ZM103.449 9.52H98.585L97.689 12H96.153L100.185 0.912H101.865L105.881 12H104.345L103.449 9.52ZM103.033 8.336L101.017 2.704L99.001 8.336H103.033Z" fill="white"/>
</svg>
