<svg width="122" height="13" viewBox="0 0 122 13" fill="none" xmlns="http://www.w3.org/2000/svg">
<path d="M9.072 0.768V2.96H6.096V12H3.36V2.96H0.384V0.768H9.072ZM15.7571 12.112C14.7011 12.112 13.7305 11.8667 12.8451 11.376C11.9705 10.8853 11.2718 10.2027 10.7491 9.328C10.2371 8.44267 9.98112 7.45067 9.98112 6.352C9.98112 5.25333 10.2371 4.26667 10.7491 3.392C11.2718 2.51733 11.9705 1.83467 12.8451 1.344C13.7305 0.853333 14.7011 0.608 15.7571 0.608C16.8131 0.608 17.7785 0.853333 18.6531 1.344C19.5385 1.83467 20.2318 2.51733 20.7331 3.392C21.2451 4.26667 21.5011 5.25333 21.5011 6.352C21.5011 7.45067 21.2451 8.44267 20.7331 9.328C20.2211 10.2027 19.5278 10.8853 18.6531 11.376C17.7785 11.8667 16.8131 12.112 15.7571 12.112ZM15.7571 9.616C16.6531 9.616 17.3678 9.31733 17.9011 8.72C18.4451 8.12267 18.7171 7.33333 18.7171 6.352C18.7171 5.36 18.4451 4.57067 17.9011 3.984C17.3678 3.38667 16.6531 3.088 15.7571 3.088C14.8505 3.088 14.1251 3.38133 13.5811 3.968C13.0478 4.55467 12.7811 5.34933 12.7811 6.352C12.7811 7.344 13.0478 8.13867 13.5811 8.736C14.1251 9.32267 14.8505 9.616 15.7571 9.616ZM33.0713 12H30.3353L25.7593 5.072V12H23.0233V0.768H25.7593L30.3353 7.728V0.768H33.0713V12ZM44.6865 0.768L40.7985 8.288V12H38.0625V8.288L34.1745 0.768H37.2785L39.4545 5.472L41.6145 0.768H44.6865ZM52.7809 10.016H48.5889L47.9169 12H45.0529L49.1169 0.768H52.2849L56.3489 12H53.4529L52.7809 10.016ZM52.0769 7.904L50.6849 3.792L49.3089 7.904H52.0769ZM65.0404 12.112C64.219 12.112 63.483 11.9787 62.8324 11.712C62.1817 11.4453 61.659 11.0507 61.2644 10.528C60.8804 10.0053 60.6777 9.376 60.6564 8.64H63.5684C63.611 9.056 63.755 9.376 64.0004 9.6C64.2457 9.81333 64.5657 9.92 64.9604 9.92C65.3657 9.92 65.6857 9.82933 65.9204 9.648C66.155 9.456 66.2724 9.19467 66.2724 8.864C66.2724 8.58667 66.1764 8.35733 65.9844 8.176C65.803 7.99467 65.5737 7.84533 65.2964 7.728C65.0297 7.61067 64.6457 7.47733 64.1444 7.328C63.419 7.104 62.827 6.88 62.3684 6.656C61.9097 6.432 61.515 6.10133 61.1844 5.664C60.8537 5.22667 60.6884 4.656 60.6884 3.952C60.6884 2.90667 61.067 2.09067 61.8244 1.504C62.5817 0.906666 63.5684 0.608 64.7844 0.608C66.0217 0.608 67.019 0.906666 67.7764 1.504C68.5337 2.09067 68.939 2.912 68.9924 3.968H66.0324C66.011 3.60533 65.8777 3.32267 65.6324 3.12C65.387 2.90667 65.0724 2.8 64.6884 2.8C64.3577 2.8 64.091 2.89067 63.8884 3.072C63.6857 3.24267 63.5844 3.49333 63.5844 3.824C63.5844 4.18667 63.755 4.46933 64.0964 4.672C64.4377 4.87467 64.971 5.09333 65.6964 5.328C66.4217 5.57333 67.0084 5.808 67.4564 6.032C67.915 6.256 68.3097 6.58133 68.6404 7.008C68.971 7.43467 69.1364 7.984 69.1364 8.656C69.1364 9.296 68.971 9.87733 68.6404 10.4C68.3204 10.9227 67.851 11.3387 67.2324 11.648C66.6137 11.9573 65.883 12.112 65.0404 12.112ZM78.9001 0.768V2.96H75.9241V12H73.1881V2.96H70.2121V0.768H78.9001ZM89.9053 0.768L86.0173 8.288V12H83.2812V8.288L79.3933 0.768H82.4973L84.6733 5.472L86.8333 0.768H89.9053ZM93.7436 9.888H97.3276V12H91.0076V0.768H93.7436V9.888ZM101.369 0.768V12H98.6326V0.768H101.369ZM107.415 12.112C106.594 12.112 105.858 11.9787 105.207 11.712C104.557 11.4453 104.034 11.0507 103.639 10.528C103.255 10.0053 103.053 9.376 103.031 8.64H105.943C105.986 9.056 106.13 9.376 106.375 9.6C106.621 9.81333 106.941 9.92 107.335 9.92C107.741 9.92 108.061 9.82933 108.295 9.648C108.53 9.456 108.647 9.19467 108.647 8.864C108.647 8.58667 108.551 8.35733 108.359 8.176C108.178 7.99467 107.949 7.84533 107.671 7.728C107.405 7.61067 107.021 7.47733 106.519 7.328C105.794 7.104 105.202 6.88 104.743 6.656C104.285 6.432 103.89 6.10133 103.559 5.664C103.229 5.22667 103.063 4.656 103.063 3.952C103.063 2.90667 103.442 2.09067 104.199 1.504C104.957 0.906666 105.943 0.608 107.159 0.608C108.397 0.608 109.394 0.906666 110.151 1.504C110.909 2.09067 111.314 2.912 111.367 3.968H108.407C108.386 3.60533 108.253 3.32267 108.007 3.12C107.762 2.90667 107.447 2.8 107.063 2.8C106.733 2.8 106.466 2.89067 106.263 3.072C106.061 3.24267 105.959 3.49333 105.959 3.824C105.959 4.18667 106.13 4.46933 106.471 4.672C106.813 4.87467 107.346 5.09333 108.071 5.328C108.797 5.57333 109.383 5.808 109.831 6.032C110.29 6.256 110.685 6.58133 111.015 7.008C111.346 7.43467 111.511 7.984 111.511 8.656C111.511 9.296 111.346 9.87733 111.015 10.4C110.695 10.9227 110.226 11.3387 109.607 11.648C108.989 11.9573 108.258 12.112 107.415 12.112ZM121.275 0.768V2.96H118.299V12H115.563V2.96H112.587V0.768H121.275Z" fill="white"/>
</svg>
