<svg width="55" height="55" viewBox="0 0 55 55" fill="none" xmlns="http://www.w3.org/2000/svg">
<g clip-path="url(#clip0_71579_65)">
<path d="M51.2535 36.5767C48.4597 34.3315 45.8969 33.24 43.4185 33.24C39.8333 33.24 37.252 35.5206 34.9149 37.857C34.6461 38.1259 34.3207 38.2513 33.891 38.2513C31.9216 38.2515 28.457 35.7852 23.5935 30.9211C17.8718 25.199 15.7085 21.5597 17.1632 20.1045C21.1065 16.1625 22.3376 12.2107 16.3 4.7021C14.1387 2.01202 12.024 0.70459 9.83526 0.70459C6.88349 0.70459 4.63962 3.06408 2.65991 5.14601C2.31764 5.50589 1.99433 5.84586 1.67733 6.16286C-0.560227 8.40023 -0.559078 13.2804 1.68059 19.218C4.1379 25.7327 8.98973 32.8196 15.3425 39.1734C20.2554 44.0859 25.601 48.056 30.8016 50.7216C35.342 53.049 39.746 54.2959 43.2026 54.2959C43.203 54.2959 43.2034 54.2959 43.2039 54.2959C45.367 54.2959 47.1241 53.824 48.2845 52.8644C50.6417 50.9155 55.0292 47.3057 54.9999 43.0178C54.9838 40.718 53.7237 38.5627 51.2535 36.5767Z" fill="white"/>
</g>
<defs>
<clipPath id="clip0_71579_65">
<rect width="55" height="55" fill="white"/>
</clipPath>
</defs>
</svg>
