<svg width="21" height="21" viewBox="0 0 21 21" fill="none" xmlns="http://www.w3.org/2000/svg">
<path d="M20.091 10.8203C20.1586 5.29659 15.7379 0.766343 10.2141 0.69877C4.69036 0.631197 0.160111 5.05195 0.0925378 10.5757C0.0249646 16.0995 4.44571 20.6297 9.96947 20.6973C15.4932 20.7648 20.0235 16.3441 20.091 10.8203ZM9.80879 16.1191L6.20951 6.43271C6.05333 5.98327 6.32892 5.59578 7.00376 5.74905L7.00294 5.7482L14.7164 7.48435C15.2633 7.61272 15.3926 7.94016 15.1287 8.3928L13.2558 10.8701L14.4026 12.09C14.5343 12.225 14.6454 12.3388 14.6422 12.5972L12.1004 12.3886L7.97158 7.70436C7.79656 7.50054 7.69355 7.74597 7.86696 8.01394L11.4016 13.7834L10.6015 16.2422C10.425 16.7759 10.059 16.7831 9.80879 16.1191Z" fill="black"/>
</svg>
